<svg xmlns="http://www.w3.org/2000/svg" fill="none" viewBox="0 0 22 22"><path fill="url(#google-logo_svg__a)" fill-rule="evenodd" d="M11 5.672c1.127 0 2.225.36 3.133 1.028l2.791-2.605A9.085 9.085 0 0 0 2.945 6.757a9.06 9.06 0 0 0 0 8.486l3.048-2.438a5.3 5.3 0 0 1-.321-1.806 5.3 5.3 0 0 1 .321-1.805A5.33 5.33 0 0 1 11 5.672m3.098 9.664a5.325 5.325 0 0 1-8.105-2.53l-3.048 2.437a9.105 9.105 0 0 0 17.164-4.242v-.689a.69.69 0 0 0-.687-.687h-8.078v3.781h4.406l-.015.03a5.3 5.3 0 0 1-1.643 1.894z" clip-rule="evenodd"/><defs><linearGradient id="google-logo_svg__a" x1="11" x2="11" y1="1.891" y2="20.11" gradientUnits="userSpaceOnUse"><stop stop-color="#fff"/><stop offset="1" stop-color="#fff" stop-opacity=".6"/></linearGradient></defs></svg>