<svg xmlns="http://www.w3.org/2000/svg" fill="none" viewBox="0 0 28 28"><path fill="#fff" d="M26.133 18.667c1.031 0 1.867.835 1.867 1.866v5.6A1.867 1.867 0 0 1 26.133 28h-5.6a1.867 1.867 0 0 1-1.866-1.867v-5.6c0-1.03.835-1.866 1.866-1.866zM7.467 0c1.03 0 1.866.836 1.866 1.867v5.6c0 1.03-.835 1.866-1.866 1.866h-5.6A1.867 1.867 0 0 1 0 7.467v-5.6C0 .836.836 0 1.867 0zm19.986 9.88c.35-.35.547-.825.547-1.32V1.867A1.867 1.867 0 0 0 26.133 0h-5.6c-1.03 0-1.866.836-1.866 1.867v5.6c0 1.03-.836 1.866-1.867 1.866h-6.694c-.495 0-.97.197-1.32.547l-8.24 8.24c-.35.35-.546.825-.546 1.32v6.693C0 27.164.836 28 1.867 28h5.6c1.03 0 1.866-.836 1.866-1.867v-5.6c0-1.03.836-1.866 1.867-1.866h6.694c.495 0 .97-.197 1.32-.547l8.24-8.24Z"/></svg>