<svg xmlns="http://www.w3.org/2000/svg" fill="none" viewBox="0 0 16 16"><path fill="#121317" fill-rule="evenodd" d="M2.542 4.333a1.66 1.66 0 0 0 1.653-1.666c0-.92-.74-1.667-1.653-1.667A1.66 1.66 0 0 0 .889 2.667c0 .92.74 1.666 1.653 1.666m1.347 1.333H1.222A.333.333 0 0 0 .89 6v8.666c0 .184.149.334.333.334H3.89c.184 0 .333-.15.333-.334V6a.333.333 0 0 0-.333-.334m10 9.334h-2a.333.333 0 0 1-.333-.333v-5a1.667 1.667 0 0 0-3.334 0v5A.333.333 0 0 1 7.89 15h-2a.333.333 0 0 1-.333-.333V6a.333.333 0 0 1 .333-.333h2A.333.333 0 0 1 8.222 6a.273.273 0 0 0 .48.18 2.8 2.8 0 0 1 2.114-.846c1.986 0 3.406 1.22 3.406 3.733v5.6a.333.333 0 0 1-.333.333" clip-rule="evenodd"/></svg>