<svg xmlns="http://www.w3.org/2000/svg" fill="none" viewBox="0 0 480 479"><g clip-path="url(#form-border_svg__a)"><path stroke="url(#form-border_svg__b)" d="M459.999 1.5H460c5.231 0 10.11 2.568 13.691 6.196C477.279 11.329 479.5 15.96 479.5 20v439c0 4.046-2.227 8.931-5.82 12.816-3.588 3.881-8.464 6.684-13.68 6.684H20c-5.216 0-10.092-2.803-13.68-6.684C2.727 467.931.5 463.046.5 459V20c0-4.046 2.227-8.93 5.82-12.816C9.908 3.304 14.784.5 20 .5z"/><path stroke="url(#form-border_svg__c)" d="M464 0H20.54C9.75 0 1 6.824 1 15.239v448.525c0 8.416 8.749 15.238 19.54 15.238H461.46c10.792 0 19.541-6.822 19.541-15.238V15.238c0-8.415-7.5-18.236-17-15.237Z"/></g><defs><radialGradient id="form-border_svg__b" cx="0" cy="0" r="1" gradientTransform="matrix(0 187.927 -241.002 0 480.501 .609)" gradientUnits="userSpaceOnUse"><stop offset=".165" stop-color="#EDE4F6"/><stop offset=".51" stop-color="#6052E0"/><stop offset=".715" stop-color="#2549BF" stop-opacity=".5"/><stop offset="1" stop-color="#2549BF" stop-opacity="0"/></radialGradient><radialGradient id="form-border_svg__c" cx="0" cy="0" r="1" gradientTransform="matrix(0 105 -134.654 0 1 360)" gradientUnits="userSpaceOnUse"><stop stop-color="#A381D2" stop-opacity=".9"/><stop offset="1" stop-color="#A381D2" stop-opacity="0"/></radialGradient><clipPath id="form-border_svg__a"><path fill="#fff" d="M0 0h480v479H0z"/></clipPath></defs></svg>