<svg xmlns="http://www.w3.org/2000/svg" fill="none" viewBox="0 0 22 22"><g clip-path="url(#github-logo_svg__a)"><path fill="url(#github-logo_svg__b)" fill-rule="evenodd" d="M11 .28c-6.05 0-11 4.95-11 11 0 4.812 3.163 8.937 7.563 10.45.55.137.687-.276.687-.55v-1.926c-3.025.688-3.713-1.375-3.713-1.375-.55-1.237-1.237-1.65-1.237-1.65-.962-.687.138-.687.138-.687 1.1.137 1.65 1.1 1.65 1.1.962 1.787 2.612 1.237 3.162.962.137-.687.412-1.237.688-1.512-2.476-.275-4.95-1.238-4.95-5.5 0-1.238.412-2.2 1.1-2.888-.138-.275-.55-1.375.137-2.887 0 0 .963-.275 3.025 1.1.825-.275 1.787-.413 2.75-.413s1.925.138 2.75.413c2.063-1.375 3.025-1.1 3.025-1.1.55 1.512.275 2.612.138 2.887.687.825 1.1 1.788 1.1 2.888 0 4.262-2.613 5.087-5.088 5.362.412.55.825 1.238.825 2.2v3.025c0 .275.137.688.825.55 4.4-1.512 7.563-5.637 7.563-10.45C22 5.23 17.05.28 11 .28" clip-rule="evenodd"/></g><defs><linearGradient id="github-logo_svg__b" x1="11.069" x2="11.069" y1=".279" y2="21.757" gradientUnits="userSpaceOnUse"><stop stop-color="#fff"/><stop offset="1" stop-color="#fff" stop-opacity=".6"/></linearGradient><clipPath id="github-logo_svg__a"><path fill="#fff" d="M0 0h22v22H0z"/></clipPath></defs></svg>